<svg xmlns="http://www.w3.org/2000/svg" viewBox="0 0 512 512" fill="none">
  <defs>
    <linearGradient id="bgGrad" x1="0%" y1="0%" x2="100%" y2="100%">
      <stop offset="0%" stop-color="#312e81" />
      <stop offset="100%" stop-color="#1e1b4b" />
    </linearGradient>
    <linearGradient id="shieldGrad" x1="0%" y1="0%" x2="100%" y2="100%">
      <stop offset="0%" stop-color="#4f46e5" />
      <stop offset="100%" stop-color="#3b82f6" />
    </linearGradient>
    <linearGradient id="goldGrad" x1="0%" y1="0%" x2="100%" y2="100%">
      <stop offset="0%" stop-color="#fbbf24" />
      <stop offset="100%" stop-color="#f59e0b" />
    </linearGradient>
    <filter id="glow" x="-20%" y="-20%" width="140%" height="140%">
      <feGaussianBlur stdDeviation="15" result="blur" />
      <feComposite in="SourceGraphic" in2="blur" operator="over" />
    </filter>
  </defs>

  <rect width="512" height="512" fill="none" />
  
  <path d="M256 32 C120 48 50 80 50 80 L50 250 C50 380 150 460 256 490 C362 460 462 380 462 250 L462 80 C462 80 392 48 256 32 Z" fill="url(#bgGrad)" stroke="#6366f1" stroke-width="12" stroke-linejoin="round" filter="url(#glow)"/>

  <path d="M256 50 C140 65 74 95 74 95 L74 245 C74 360 160 435 256 460 C352 435 438 360 438 245 L438 95 C438 95 372 65 256 50 Z" fill="url(#shieldGrad)" stroke="#818cf8" stroke-width="8" stroke-linejoin="round"/>
  
  <g stroke="#ffffff" stroke-width="2" stroke-opacity="0.1" fill="none">
    <path d="M256 50 L256 460" />
    <path d="M74 150 L438 150" />
    <path d="M74 250 L438 250" />
    <path d="M74 350 L438 350" />
    <path d="M165 65 L165 425" />
    <path d="M347 65 L347 425" />
  </g>

  <path d="M256 420 C200 420 140 380 100 350 L100 400 C140 430 200 450 256 450 C312 450 372 430 412 400 L412 350 C372 380 312 420 256 420 Z" fill="#ffffff" />
  <path d="M256 390 C200 390 140 350 100 320 L100 370 C140 400 200 420 256 420 C312 420 372 400 412 370 L412 320 C372 350 312 390 256 390 Z" fill="#e0e7ff" />
  <path d="M256 360 C200 360 140 320 100 290 L100 340 C140 370 200 390 256 390 C312 390 372 370 412 340 L412 290 C372 320 312 360 256 360 Z" fill="#c7d2fe" />
  
  <path d="M256 350 C200 350 140 310 100 280 L100 330 C140 360 200 380 256 380 C312 380 372 360 412 330 L412 280 C372 310 312 350 256 350 Z" fill="#ffffff" />

  <path d="M256 350 L256 450" fill="none" stroke="#818cf8" stroke-width="4" stroke-linecap="round"/>

  <g transform="translate(0, -30)">
    <text x="256" y="360" font-family="'Arial', 'Helvetica', sans-serif" font-weight="900" font-size="200" fill="#ffffff" text-anchor="middle" letter-spacing="-5" style="filter: drop-shadow(4px 4px 10px rgba(0,0,0,0.5))">S</text>
  </g>

  <g transform="translate(0, -10)">
    <path d="M190 140 L190 200 C190 220 322 220 322 200 L322 140" fill="none" stroke="#0f172a" stroke-width="20" stroke-linecap="round" stroke-linejoin="round"/>
    <path d="M190 140 L190 200 C190 220 322 220 322 200 L322 140" fill="#1e293b"/>
    <path d="M256 80 L120 140 L256 200 L392 140 Z" fill="#1e293b" stroke="#0f172a" stroke-width="12" stroke-linejoin="round"/>
    <circle cx="256" cy="140" r="10" fill="url(#goldGrad)" style="filter: drop-shadow(1px 2px 4px rgba(0,0,0,0.5))" />
    <path d="M256 140 C280 150 350 160 360 210" fill="none" stroke="url(#goldGrad)" stroke-width="6" stroke-linecap="round"/>
    <path d="M356 210 L350 250 L370 250 Z" fill="url(#goldGrad)"/>
  </g>
</svg>
